Patient4_TMGait_0pt5_01_left_04_EMG.mot
version=1
nRows=33
nColumns=33
inDegrees=no
endheader
time	1LAddLong	2LGlutMax	3LGlutMed	4LIliopsoas	5LSemiMemb	6LBicFemLong	7LRecFem	8LVastMed	9LVastLat	10LGasMed	11LTibAnt	12lTibPost	13LPeroneusLong	14LSol	15LExtDigLong	16LFlexDigLong	17RAddLong	18RGlutMax	19RGlutMed	20RIliopsoas	21RSemiMemb	22RBicFemLong	23RRecFem	24RVastMed	25RVastLat	26RGasMed	27RTibAnt	28RTibPost	29RPeroneusLong	30RSol	31RExtDigLong	32RFlexDigLong
6.663	0.014801	0.11353	-0.078583	0.003815	0.002289	-0.031281	0.072784	0.010071	0.16922	-0.023499	0.021057	-0.006409	0.024872	-0.070648	0.002747	-0.001068	-0.023804	0.16541	0.47394	-0.007477	0.00473	0.06073	-0.21881	0.20355	0.10101	0.063019	0.049133	-0.007477	-0.31601	0.25024	-0.004272	-0.009308
6.664	0.010071	0.11078	-0.18265	0.003815	-0.018616	-0.041046	0.066681	0.018311	0.15701	-0.038605	0.073547	0.005798	0.013428	-0.12238	0.002899	-0.00061	-0.00473	0.11276	-0.43198	0.072479	-0.096283	0.062714	-0.059509	0.2626	0.010223	0.22614	0.010834	-0.074615	0.057983	0.096741	-0.003357	-0.015717
6.665	0.010376	0.10437	-0.23422	-0.014801	0.030823	-0.05249	0.076294	0.009766	0.14679	-0.040741	-0.025482	0.008087	0.000458	-0.098267	0.009308	-0.000153	0.013885	0.15015	-0.01236	0.0354	-0.054016	-0.000458	0.089722	0.17334	0.004272	0.17029	0.005798	0.029755	0.022278	0.15396	-0.002136	-0.01358
6.666	0.002899	0.07843	-0.22064	0.006409	0.025635	-0.044861	0.062561	0.011292	0.13733	-0.044403	-0.005035	0.004578	-0.013275	-0.033417	0.000763	-0.010223	0.011597	0.13153	0.034485	0.021057	0.030823	-0.031128	0.000458	0.15381	0.09491	0.055542	-0.074158	0.059509	-0.25085	0.38101	0.000763	-0.01358
6.667	-0.002899	0.094299	-0.18097	-0.004425	0.007782	-0.020599	0.07019	0.017395	0.13351	-0.045929	-0.032043	-0.003052	-0.008545	0.018616	0.009155	0.000763	0.000916	0.074005	0.054626	0.042572	0.14297	-0.036926	-0.025482	0.15091	0.13489	-0.078583	-0.082397	-0.022583	-0.18616	0.45929	0.003204	-0.012512
6.668	-0.001678	0.056	-0.089111	-0.00351	-0.020447	-0.019226	0.075073	0.015411	0.1268	-0.041351	0.037231	0.006714	-0.004883	0.004883	0.001831	0.008392	0.013733	0.073853	0.19196	0.033722	0.020294	0.013428	0.02533	0.054169	0.054321	-0.088806	-0.071716	-0.006409	0.065765	0.18494	-0.002594	-0.013428
6.669	0.005035	0.047913	0.098419	0.015869	-0.055389	-0.023956	0.049133	0.01709	0.12573	-0.05127	0.00885	0	0.004425	-0.014038	-0.009613	0.003052	0.022736	0.049133	0.14465	0.033264	-0.22614	0.017548	0.01236	0.066071	0.020752	-0.11429	-0.038452	0.027161	0.2977	-0.12299	0.002136	-0.020752
6.67	0.011902	0.039063	-0.009918	-0.00412	-0.056152	-0.038147	0.057526	0.011139	0.12421	-0.054321	0.014038	0.001373	-0.00351	0.016174	0.002441	-0.000916	0.028687	0.043488	-0.00885	0.048981	-0.29159	-0.051117	0.081177	0.06424	-0.003815	-0.14053	0.035706	0.025787	0.37659	-0.5339	0.002594	-0.011902
6.671	0.005646	0.039978	-0.016022	0.005646	-0.007324	-0.055695	0.041199	0.01709	0.1207	-0.054932	0.0177	0.000916	-0.005646	0.059204	0.002441	0.005798	-0.001221	0.04303	-0.10498	0.011597	0.2388	-0.081482	0.095978	0.097046	0.001526	-0.068207	0.18066	0.017548	0.13214	-0.46783	-0.001526	-0.012512
6.672	0.00885	0.012207	-0.080872	0.013733	0.07782	-0.063629	0.039063	0.015411	0.11704	-0.037079	0.020447	-0.000458	-0.007477	0.057526	-0.007019	0.008392	0.008698	-0.061798	-0.14435	-0.018463	0.26581	-0.11047	0.1503	0.058136	-0.002899	-0.003204	0.18036	-0.007629	-0.33188	-0.16495	-0.000458	-0.002747
6.673	0.015106	0.018311	-0.071564	0.004578	0.050201	-0.090942	0.057831	0.009918	0.11536	-0.029907	0.023956	0.00412	-0.009155	-0.044098	-0.010681	0.004883	-0.009003	-0.050049	-0.055695	-0.022583	0.25284	-0.06958	0.088501	0.007324	-0.022125	-0.002899	0.18173	0.000305	-0.45197	-0.44617	-0.005646	-0.000305
6.674	0.018311	0.028534	-0.053101	-0.005798	0.036469	-0.10025	0.043488	0.015106	0.093384	-0.049744	0.0177	0.005341	-0.010681	-0.055389	0.000153	0.023193	-0.039673	-0.014648	-0.03952	0.009308	0.15564	0.050507	0.010376	-0.026398	-0.060883	0.050049	0.25772	-0.003052	-0.57861	-0.63187	-0.005951	-0.010986
6.675	0.010986	0.021667	-0.12253	0.019073	0.051575	-0.058746	0.054321	0.021057	0.096436	-0.065613	0.020447	0.000763	-0.011139	-0.007019	0.005951	0.020142	-0.024872	0.02243	-0.033722	0.032501	0.10498	0.094604	-0.053101	-0.019226	-0.068817	0.070801	0.18982	-0.00412	-0.42877	-0.45105	-0.00061	0.002899
6.676	0.010986	-0.03418	-0.13596	0.014496	0.009308	-0.057526	0.045624	0.012665	0.080261	-0.046387	0.014801	0.00824	-0.027771	0.007629	-0.009308	0.00946	-0.007935	-0.00946	0.11688	-0.02243	0.089874	0.052338	-0.054474	-0.044861	-0.087433	-0.016937	-0.16922	-0.15045	-0.39017	0.080872	0.000916	0.003052
6.677	0.013275	-0.059052	-0.17197	0.007324	-0.039825	-0.06546	0.036774	0.018921	0.080719	-0.066528	0.018158	0.002289	-0.023651	0.043488	-0.007172	0.019073	-0.001068	-0.00061	0.20554	-0.073853	0.050354	0.042572	-0.066223	0.075684	-0.064697	-0.003815	-0.32501	-0.31845	-0.41168	0.081635	-0.00412	0.004578
6.678	0.009766	-0.034637	-0.11215	0.003662	-0.055542	-0.03479	0.048065	0.018005	0.073395	0.005798	0.027466	0.008545	-0.021515	-0.012054	0.008087	0.009003	0.002441	-0.010071	0.098267	-0.016174	-0.044403	0.065155	0.027161	0.14465	0.04837	0.066986	-0.27557	0.24139	-0.44373	-0.45273	-0.003662	-0.002289
6.679	0.020142	-0.028229	-0.10727	0.005188	-0.016327	-0.038452	0.030212	0.024261	0.076904	-0.030212	0.024414	0.005798	-0.003967	-0.14252	-0.014038	0.003204	0.006561	-0.028229	0.18814	0.038605	-0.089722	-0.003357	0.18112	0.096436	0.05188	0.037537	-0.1442	0.14786	-0.20309	-0.4805	-0.001831	-0.005188
6.68	0.021667	-0.002594	-0.14008	0.010529	0.050964	-0.00885	0.042725	0.017548	0.067596	-0.023651	0.000153	-0.003357	0.002899	-0.13748	-0.011292	0.00946	0.007629	-0.025787	0.21088	0.024719	-0.079041	-0.007324	0.16876	0.060883	-0.03006	0.015717	-0.045776	-0.064392	0.11337	0.084534	-0.001831	-0.005951
6.681	0.012054	-0.027008	-0.076447	-0.001068	0.038147	0.15915	0.048065	0.004425	0.069275	-0.02533	0.012512	0.005951	-0.004578	-0.094452	-0.014343	0.000153	0.009003	-0.014801	0.21179	-0.02594	-0.067444	0.014648	0.092163	0.1088	-0.073242	-0.068207	0.035706	-0.13825	0.27908	0.10574	-0.007477	-0.010071
6.682	0.011444	-0.013275	-0.077667	0.001678	-0.013123	0.20309	0.044098	0.016632	0.083008	-0.020142	0.000458	-0.004272	0.001373	-0.083466	-0.006561	0.015564	-0.005493	-0.0914	0.11749	-0.000305	0.021973	-0.025177	-0.014343	0.048065	-0.093994	-0.01297	0.10422	-0.03479	0.43991	-0.26459	-0.005035	-0.009766
6.683	0.018311	-0.018768	-0.018463	-0.007629	-0.072021	0.11643	0.060883	0.024872	0.032654	-0.022888	0.027161	-0.002441	-0.014038	-0.03952	-0.006714	0.012512	0.003357	-0.075226	0.24414	-0.026703	-0.007629	-0.021515	-0.052185	0.079956	-0.049744	0.054474	0.17334	0.071869	0.43564	-0.40451	-0.00061	-0.010986
6.684	0.013733	-0.016632	-0.001221	0.007477	-0.086823	0.073395	0.044556	0.011597	0.041504	-0.028229	0.002747	0.005188	-0.002136	-0.03006	-0.00061	0.019531	0.023193	-0.007477	0.13809	0.010223	-0.0383	-0.068665	0.073395	0.026855	-0.056	0.037537	0.19516	0.090332	0.18585	-0.031891	-0.003967	-0.014191
6.685	0.02243	-0.016632	-0.085907	-0.013275	0.023651	0.048676	0.040588	0.017853	0.061035	-0.032806	-0.001678	0.001526	0.00412	-0.028992	0.00061	0.011292	0.025177	-0.046692	0.13367	0.023804	-0.007324	-0.16159	0.073395	0.043945	-0.052185	0.07843	0.28168	0.098572	0.13077	0.62271	-0.00473	-0.016174
6.686	0.016174	-0.011139	-0.077209	-0.006104	0.072937	0.036774	0.030212	0.010223	0.046387	-0.030823	0.024872	0.004883	0.023346	-0.073242	-0.00824	0.010529	0.029144	-0.058746	0.068817	0.007782	0.030823	-0.14374	0.1445	0.044556	-0.068512	0.093079	0.37247	0.072784	0.029755	0.4425	-0.003052	-0.01297
6.687	0.018463	-0.020447	0.000153	0.005951	0.071869	0.059967	0.043182	0.016022	0.054169	-0.023346	0.010834	0.00885	0.018463	-0.048523	0.00351	0.011444	0.032349	-0.055084	0.066223	0.018158	-0.042725	0.046997	0.22217	0.074615	-0.050049	0.0914	-0.075378	0.045776	0.013123	0.56717	-0.003967	-0.014954
6.688	0.014801	-0.00946	0.12009	0.00412	0.036011	0.12314	0.046234	0.017548	0.053101	-0.018768	0.011597	-0.003662	-0.000458	-0.036926	-0.006409	0.007477	0.014801	-0.088806	0.19821	0.026093	-0.14099	0.037994	0.1532	0.071106	-0.008545	0.062561	-0.58365	-0.15701	0.037384	0.40329	-0.001678	-0.012207
6.689	0.006714	-0.00824	0.1152	-0.013275	0.014038	0.14542	0.036316	0.011292	0.04425	-0.022583	0.02182	0.003357	-0.032806	-0.032959	-0.009308	0.003204	0.014954	-0.12268	0.18631	0.00946	-0.092468	-0.007324	0.22385	0.047607	-0.044556	0.01297	-0.64377	-0.012665	0.053711	0.20096	-0.002899	-0.001984
6.69	0.003815	-0.052338	0.024414	0.001373	0.006256	0.12161	0.027161	0.024414	0.035706	-0.033875	0.007629	-0.002594	-0.032043	-0.047913	-0.007324	0.009308	0.002441	-0.10452	-0.09201	0.023041	-0.095062	0.079803	0.18662	-0.037079	-0.083008	0.014496	-0.29098	0.11047	-0.068665	-0.11658	0.006866	-0.002441
6.691	0.013275	-0.028687	-0.074463	-0.004425	0.000305	0.11276	0.026703	0.016022	0.038147	-0.034485	0.00946	0.002441	-0.001068	-0.06134	0.002136	0.001831	-0.009918	-0.16052	-0.21454	0.042114	0.072784	0.033417	-0.069733	-0.06958	-0.060425	-0.001221	0.19653	0.006866	0.040894	-0.28244	-0.000763	-0.00351
6.692	0.007477	0.007019	-0.22293	-0.005035	0.000305	0.086365	0.018768	-0.009766	0.032196	-0.01709	0.013733	0.001373	0.009155	-0.059357	0.001221	0.007782	-0.016479	-0.11215	-0.15289	0.050507	0.057068	0.011139	-0.092773	-0.017395	0.009918	0.018768	0.38559	0.042267	0.24109	-0.3714	-0.000305	0.00351
6.693	0.007782	-0.030212	-0.17746	0.009613	-0.015259	0.067444	0.011139	0.005493	0.037994	-0.01236	0.02182	-0.001526	0.01709	-0.052795	0.000916	-0.001678	0.007935	-0.10971	-0.01236	-0.007782	0.15533	0.005798	-0.062103	0.030518	-0.006561	-0.002441	0.14618	0.034943	0.25635	-0.21057	-0.00061	-0.00061
6.694	0.004425	-0.032501	-0.028687	0.014191	-0.050812	0.03479	0.012054	0.018158	0.056	-0.003662	0.001831	0.006256	0.021973	-0.061951	0.00473	0.000458	0.025635	-0.20432	0.014191	-0.030518	0.24933	-0.014801	-0.1181	0.024872	-0.039978	-0.076752	-0.012054	-0.025024	0.026093	-0.001068	-0.002136	-0.000916
6.695	0.005188	-0.039978	0.17151	0	0.000458	0.071106	0.007172	-0.049286	0.057678	-0.002136	0.002747	0.003052	0.011139	-0.094299	0.003357	0.002289	0.024261	-0.22003	0.23819	0.000763	0.12314	0.095825	-0.015259	0.031281	-0.06485	0.047455	0.05188	-0.019379	-0.36163	0.06073	-0.003357	-0.000458
